<svg width="118" height="147" viewBox="0 0 118 147" fill="none" xmlns="http://www.w3.org/2000/svg">
<g clip-path="url(#clip0_423_607)">
<path d="M23.1899 46.9609C32.1268 41.0588 29.6775 41.0033 38.0166 48.5884C33.577 51.26 28.6429 53.4775 24.601 56.7846C-1.09042 77.8151 5.82884 119.521 37.1464 133.304C65.8295 145.926 99.1914 129.767 108.749 98.4769C109.772 95.1266 111.241 92.8632 114.782 93.9221C118.071 94.9062 118.023 97.6205 117.221 100.694C106.252 142.661 54.9175 160.214 21.0661 133.512C-7.82185 110.728 -6.89058 66.8237 23.1899 46.9609Z" fill="#5D5D5D"/>
<path d="M97.968 99.1742C105.689 72.1038 84.4642 42.8628 56.1342 41.5462C42.366 40.9061 34.6716 30.9704 38.927 19.3269C41.775 11.5351 48.7962 7.44916 55.9845 9.40581C62.7513 11.2468 68.1869 19.6869 66.7592 26.9028C66.0741 30.3628 64.3567 33.6204 62.9497 37.3909C65.1695 38.0898 67.9899 38.9802 70.7249 39.8417C81.7457 24.3983 73.2794 3.37925 55.0657 0.249797C41.4003 -2.09856 27.2248 12.5169 29.0983 27.0245C30.919 41.1229 39.1654 48.842 53.3965 49.7669C73.358 51.0655 88.3849 65.1529 90.8848 84.9118C92.8198 100.216 80.207 117.209 64.4747 120.495C64.027 120.588 63.5788 120.657 63.132 120.72C67.7525 115.849 71.3219 110.942 74.0523 105.68C75.8478 102.215 77.8838 97.5472 77.7052 92.1415C77.4453 83.9549 70.8246 77.2918 62.9483 77.2918C61.6061 77.2918 60.2533 77.4847 58.9248 77.8658C56.8772 78.4545 54.7194 79.5006 52.5139 80.9769C51.8219 81.4398 51.455 81.6042 51.2975 81.6611C51.1519 81.5955 50.8236 81.4182 50.2399 80.9645C45.3774 77.1798 39.7642 76.3854 34.4944 78.7324C28.483 81.409 25.3388 86.5337 25.6185 93.1811C25.3723 98.2645 27.5292 102.558 29.3646 106.057C29.428 106.177 29.4928 106.304 29.5552 106.423C34.1752 115.224 41.1459 122.049 47.3548 127.565C47.9274 128.073 48.5244 128.452 49.1351 128.742C49.5732 128.951 50.02 129.105 50.4741 129.208L50.431 129.218C50.9163 129.312 51.4008 129.406 51.8949 129.481C72.1002 132.57 92.2155 119.337 97.968 99.1742ZM66.672 101.854C63.3497 108.257 58.5616 114.139 51.6653 120.267C46.1117 115.249 40.6238 109.629 36.9139 102.56C34.9926 98.9 33.7472 96.2899 33.9268 93.4608L33.9424 93.2165L33.9291 92.9713C33.75 89.6696 34.966 87.6202 37.875 86.3257C40.362 85.2167 42.6861 85.6199 45.1387 87.5275C46.6205 88.6777 48.6552 89.9961 51.2722 89.9961C53.672 89.9961 55.6677 88.8679 57.1353 87.8847C58.6254 86.8882 59.9989 86.2049 61.2176 85.8555C61.8008 85.6888 62.3826 85.6029 62.9483 85.6029C66.3271 85.6029 69.2798 88.7209 69.3992 92.4115C69.5131 95.8776 68.085 99.1296 66.672 101.854Z" fill="#F1908C"/>
</g>
<defs>
<clipPath id="clip0_423_607">
<rect width="118" height="147" fill="white"/>
</clipPath>
</defs>
</svg>
